# xmcd CD database file
#
# Track frame offsets:
#	150
#	15275
#	31150
#	46267
#
# Disc length: 827 seconds
#
# Revision: 0
# Processed by: cddbd v1.5.1PL2 Copyright (c) Steve Scherf et al.
# Submitted via: CDex 1.51
#
DISCID=1e033904
DTITLE=ズッコケガールズ（高乃麗、横山智佐、スズトモ） - それいけ！ズッコケ３人組／↑アップアップアップ
DYEAR=2004
DGENRE=Anime
TTITLE0=↑アップアップアップ
TTITLE1=ギュッとしたいな
TTITLE2=↑アップアップアップ（オリジナルカラオケ）
TTITLE3=ギュっとしたいな（オリジナルカラオケ）
EXTD=YEAR: 2004
EXTT0=
EXTT1=
EXTT2=
EXTT3=
PLAYORDER=
